
<global>
amp_veltrack=0
</global>

<group>
ampeg_release=0.05
group_label=Sustain_46-90
lpc_hicc1=42
lpc_locc1=0

<region>
hikey=a#2
hivel=127
lokey=a2
lovel=1
lpc=B3iJQb2xNcKFNUJCwELqwZPVZ0Gvyg3Bcdq5QPnhUsBllVw/zsnrP/PXMMArx6A7FSDSP79Zxj3QbCC/XhUhPkTKwj6optK/LGK2Pz7cCz98z5G/0QhmvzYHgT9Ad1M+
lpc_rms=-22.01
offset=5250
pitch_keycenter=a#2
sample=Bass_fall_MF_A#2.opus
</region>

<region>
hikey=a#3
hivel=127
lokey=a3
lovel=1
lpc=SZ9ZQSvCEcK66B5C+3KpwV62gkBouQQ/aJrPP2eJDcCx830/WN7UPgGF87/TVno9IFdNQCQrKsCYtka/cOefP4kFkT8l2KO/+Y30vefk9769myJARDs+wK6aWj8tymg+
lpc_rms=-22.34
offset=1349
pitch_keycenter=a#3
sample=Bass_fall_MF_A#3.opus
</region>

<region>
hikey=G5
hivel=127
lokey=a4
lovel=1
lpc=MQN3QdrdGcKAoB9CQ2zCwaZuPUGVvRPBpDIkQbb2CsFji4ZAO8T6vu0ypT80UjnAFSmXPpxJVUD1P5HAZXijQDE/mcAS70o/uMZ3QGE4wMA48uhAana3wDjXCkCsfkG+
lpc_rms=-22.33
offset=3176
pitch_keycenter=A#4
sample=Bass_fall_MF_A#4.opus
</region>

<region>
hivel=127
key=c2
lovel=1
lpc=TkrIQTN2jMKHHZxCDN0kwrsE+EBhoaa/61gBQWnjG8HHEh9A2hlPQGsTk79yA1TAcchlQFYPYL+cUs4/AIQqwGE19b9er51AbSiav9GpUMARJm5AZuiMvy2byb+jsZU/
lpc_rms=-22.93
offset=2494
sample=Bass_fall_MF_C2.opus
</region>

<region>
hikey=c3
hivel=127
lokey=b2
lovel=1
lpc=UxWkQXXsYsJx+IZCReBIwsWf+kHUEp3BITQyQbQisMB7Q8M/wbCzPxduwL9hhjk9BpBpv6yDuj8jNAVADpxHwFe4VT/rsx6/bYrzP2Fw37/m15M/SK2gv2+w/r7R24s/
lpc_rms=-22.52
offset=3093
pitch_keycenter=c3
sample=Bass_fall_MF_C3.opus
</region>

<region>
hikey=c4
hivel=127
lokey=b3
lovel=1
lpc=t9T0QZS9qsJkfcBCFpNiwiuBp0E+cCzB03AsQbll7sAiURLADqAiQQs5psDE5NPAXN0gQeiJ1MBzGypA+RwoQFq1psD2ULw/lYYnQPNWZcCTTnBACcWMwDwEHEB4N58+
lpc_rms=-17.58
offset=641
pitch_keycenter=c4
sample=Bass_fall_MF_C4.opus
</region>

<region>
hikey=d2
hivel=127
lokey=c#2
lovel=1
lpc=/gC9QRhOicI9JKxCu11+whk7EEJ6wcbBjRSxQTX2hMGOg9RA6AV7PkA8Yb9XA92/c71iQDNpuMC7DRxBvMAXwRVuhEAUhL8+01ZVvz4F4b6Z9Kk/Mx2Hv2HyTr88eWY/
lpc_rms=-21.89
offset=7364
pitch_keycenter=d2
sample=Bass_fall_MF_D2.opus
</region>

<region>
hikey=d3
hivel=127
lokey=c#3
lovel=1
lpc=acLCQfUhhcLEYY5CtsIiwsl6nEHP5ljBmDoMQUbZcMDFyuM/0gn1v0ngH0CsPFvAbhg9QB8yM8BDurRADMqgwFWBiD840+C+XQ7TP/dYOb/c7u49chqEwBw5s0CeGfK/
lpc_rms=-21.87
offset=2745
pitch_keycenter=d3
sample=Bass_fall_MF_D3.opus
</region>

<region>
hikey=d4
hivel=127
lokey=c#4
lovel=1
lpc=OsInQnqf0sKxHNVCncRywvNv6EF3epLBfypDQVmvIcFRNsBAK1DyvyiSmkACu7DAjgIxPmbn0z/ZB7E9IldAP2wFe8Aye9U/aFtrQAZjKcAPKZ6/ES0UQAsFBMBHw94/
lpc_rms=-17.39
offset=3276
pitch_keycenter=d4
sample=Bass_fall_MF_D4.opus
</region>

<region>
hikey=e2
hivel=127
lokey=d#2
lovel=1
lpc=HKy3QXTwg8I1C59CRmRYwt/9vkH3AxDBC2TkQL9918Dp5v4+AVGlQIEWlcDaXx4/8cikP0mL2r+hi55Ao36xwFzDmj/TfwJAh3IfwJyTLkB3ADLAD0nJP1xgdb91lQ8/
lpc_rms=-22.58
offset=3064
pitch_keycenter=e2
sample=Bass_fall_MF_E2.opus
</region>

<region>
hikey=e3
hivel=127
lokey=d#3
lovel=1
lpc=Lo/eQdrYk8Le4JRCNH0dwj2vlkG/CGzB0V5cQQuiHMHQeM1AXQPKwDmynUALq7jAK6TAQGYPRcD3bnpAsbrKv9mh37/a9PQ9o/B7v8TZvT8Dcjw/ivQLP1WLT8CVN/U/
lpc_rms=-20.31
offset=2100
pitch_keycenter=e3
sample=Bass_fall_MF_E3.opus
</region>

<region>
hikey=e4
hivel=127
lokey=d#4
lovel=1
lpc=DykPQnKErMK7r6dC8S08wjQHq0ET1ZLBXHukQc0dRsEm6ZlAs8Oav/F3zL8D/IK/sLAVQJbWIcB1ikFAMzCoP56KIsDua38/BsZqPhlKWcCv+CxAjuwyPre3xL88LOE/
lpc_rms=-16.91
offset=4702
pitch_keycenter=e4
sample=Bass_fall_MF_E4.opus
</region>

<region>
hikey=f#2
hivel=127
lokey=f2
lovel=1
lpc=FjTIQSgmjMLmX6JCvGJPwphLqUHJchXBI0cVQWQ2HcGMJeZAqFqiv2BMnMD8zJJAEgIwwB2SdEAktx7AHO88v2bNE0D/Gg3AP7SPP67ZED1RFYM/qf5MwLgoO0BNj1G/
lpc_rms=-19.83
offset=5689
pitch_keycenter=f#2
sample=Bass_fall_MF_F#2.opus
</region>

<region>
hikey=f#3
hivel=127
lokey=f3
lovel=1
lpc=/NdfQrkCCcPGf+lC6VdVwnwqEUKuq8PBS7sXQW/DMMEkTV5BP4+MwPxmYj/WyB/BLl3NQPx5wsDwxl1BVLKjwGB5OsDsu8I/XchzwJMCJEGTMzjBEzwPQQKtOMHig+hA
lpc_rms=-14.86
offset=2844
pitch_keycenter=f#3
sample=Bass_fall_MF_F#3.opus
</region>

<region>
hikey=f#4
hivel=127
lokey=f4
lovel=1
lpc=ofVMQkVUBMOZDApD2OmjwgOUDkIXZobBDnCFQR01icFrcjJBhUB7v55zLcDdbTHBuAK8QcjSk8Foj/lAQD9zP02as78ZxwrB4856QT84kMElyKFBMdhJwRNcKsAwf7tA
lpc_rms=-11.79
offset=3787
pitch_keycenter=f#4
sample=Bass_fall_MF_F#4.opus
</region>

<region>
hikey=g#2
hivel=127
lokey=g2
lovel=1
lpc=7S7AQTieh8KIAaFCJIFcwidBxEE4H+nAhfdGQEjT/L+wEka/8QLfP8Fj6T6NPbfA5xP7QGKWv8AKOLRA412LwGOlYj+7IbM/1nX+vwI2CUB8z8C/S71hvvgwcD8lyoa+
lpc_rms=-20.10
offset=5430
pitch_keycenter=g#2
sample=Bass_fall_MF_G#2.opus
</region>

<region>
hikey=g#3
hivel=127
lokey=g3
lovel=1
lpc=oYwiQrSky8J9R7hC3k41wqfruEExXirB+m+KQJi2nMBCkB5ALdTJQPVe0MCfbMTA4xH0QC9mqMAshglBADh9wPt9JECHur3AsLGPQKiPfz7ELYjAHcWBQOwsecCWfRBA
lpc_rms=-17.27
offset=1760
pitch_keycenter=g#3
sample=Bass_fall_MF_G#3.opus
</region>

<region>
hikey=g#4
hivel=127
lokey=g4
lovel=1
lpc=F4nVQfd1gcLvX3RC0TQIwupQn0Eo7W7BJMIyQez3xcBiuANAoUw4QHpjBcGZ6MlAmzUtv0y5g8D8b7pAkchswBxlgUDOqqbAJDlXQFseEL7VX/y/e2/gP8tRcb7MSkE+
lpc_rms=-19.06
offset=5920
pitch_keycenter=g#4
sample=Bass_fall_MF_G#4.opus
</region>
</group>

<group>
ampeg_release=0.05
group_label=Sustain_0-45
lpc_hicc1=84
lpc_locc1=43

<region>
hikey=a#2
hivel=127
lokey=a2
lovel=1
lpc=vYS9QaivLMJY1NBB9/Zawaf3IUEL46DAo6RgP7nqQj5SD6A/OX9Hv+kuCEC+KwbAfl8gQJPogcDWbSZA8Zttvw4WCUDeb1HAss8iQCUl4r9B+y1ASYs3wAUhEj/Amr8+
lpc_rms=-29.65
offset=9572
pitch_keycenter=a#2
sample=BassClarinet_fall_PP_A#2.opus
</region>

<region>
hikey=a#3
hivel=127
lokey=a3
lovel=1
lpc=Pk6OQThnA8Ih75ZBkCDJwJ72okD1HALAQ6hrv60MfD+x8ru/WcpQP/uv3T5JFfu+7nupPq0AM7/Kbq4+kvFlvkBDCT/LaEm/msVFP3e9Vj7Wdsa+wwyCPsIZi7/dk4s/
lpc_rms=-30.42
offset=15866
pitch_keycenter=a#3
sample=BassClarinet_fall_PP_A#3.opus
</region>

<region>
hikey=G5
hivel=127
lokey=a4
lovel=1
lpc=kLqXQdg9FsKfscVBp3giwZ9m5UD5YojAiBzTP/P30b/6HzRAwzUiwD9w5D+gDlO/HsCXP26X0L+MjhM/eRo+P3pxmb/IRxo/8mIyv/ZZ1z/K2uG/Kr6bP/fVQb9qINw+
lpc_rms=-29.20
offset=4190
pitch_keycenter=A#4
sample=BassClarinet_fall_PP_A#4.opus
</region>

<region>
hivel=127
key=c2
lovel=1
lpc=67UcQg2ErsLTdqFCQQsywuZpfkE7kTXBGJk3QTNBrcCgVnDA0yXeQBFqTb9cc6XAhpWcQKI7hMAs699APpywwPZNhr8qsotAS3KNP6EXusB0eJBAcMfFPxKPZ8ArA1w/
lpc_rms=-27.08
offset=2280
sample=BassClarinet_fall_PP_C2.opus
</region>

<region>
hikey=c3
hivel=127
lokey=b2
lovel=1
lpc=/yX3QRRud8LJZCtCyaWlwSomXkFEdaXAv5f/PmFkdcA/+6RAPVhxwHSQQUCTmoPA9R9eQIFQIsCjD8JAOlClwBNiOkB4zgvANV4VQGXh6z3XGQHAt0+QPiNdM7+a7jM/
lpc_rms=-29.70
offset=6793
pitch_keycenter=c3
sample=BassClarinet_fall_PP_C3.opus
</region>

<region>
hikey=c4
hivel=127
lokey=b3
lovel=1
lpc=UsBAQjaEtMIBRGpCj8PjwWlDukHt2mLBew/FQLualcBOcjvADwQHQbKPfcC/th8/vDZ8QBYsJsGhxt5A03Guv8/LR0AH/+TAhBxlQEKFv77JKmc/EIGvv7VyiEBafb6/
lpc_rms=-20.58
offset=1911
pitch_keycenter=c4
sample=BassClarinet_fall_PP_C4.opus
</region>

<region>
hikey=d2
hivel=127
lokey=c#2
lovel=1
lpc=2tcvQip4wsI7JKxCfhAzwqhIaUF/r9DANefdQLp1sMDE5FE+pm12QDoWpMCbTIlAOU7Bv7jptb8HSUQ/ZXjvQFL7PsFfCuFA1YsNQP9wwsBgdrZA/IkkwNCxvL4dWho9
lpc_rms=-25.36
offset=2798
pitch_keycenter=d2
sample=BassClarinet_fall_PP_D2.opus
</region>

<region>
hikey=d3
hivel=127
lokey=c#3
lovel=1
lpc=B5vuQYNFXsJ4HA9Cm2SuwY4td0Er39rAw2nqP/RbLEDYgRfA+kPZPzezTz8NHOG/5KF6PuUAsr6I5Ac/cDbIP/7Z978eP5c/ZsY1vV3UYz6HTa6/QSDgPr9J1b93tMk/
lpc_rms=-29.93
offset=2082
pitch_keycenter=d3
sample=BassClarinet_fall_PP_D3.opus
</region>

<region>
hikey=d4
hivel=127
lokey=c#4
lovel=1
lpc=QfFTQqPO0MJ/E4xC1TL/wXiGuEFSwS3BkLdov9zaEb5UAnw/0CUCwAj900AK4rTAPF5hQChTrb8tG1A9krgbvi3qEUCbjWbAR/PiP7G5OD9CBIM/lGYrwHZzO0Dn4cW/
lpc_rms=-22.10
offset=6795
pitch_keycenter=d4
sample=BassClarinet_fall_PP_D4.opus
</region>

<region>
hikey=e2
hivel=127
lokey=d#2
lovel=1
lpc=RMjhQQ9uXcJ8HxBCn/xHwWDX1kBv+sXALQt1QOqWF8CyimI/fEroPrgbZz+lWi7ACVilQEfl3cDOr85AA//avwTREcBPTT9ACGAHwO2cU0COOyDARRLOv2NZGkAPiH6/
lpc_rms=-27.24
offset=2373
pitch_keycenter=e2
sample=BassClarinet_fall_PP_E2.opus
</region>

<region>
hikey=e3
hivel=127
lokey=d#3
lovel=1
lpc=l0zPQT5iNcKK+9JBS9+MwUt2LUHi7NK+h0MkwMYGpUBY+3zArdJQQOESOL9Hdy2+RoRpv2QFdj7a0R8/QIQGQF8ISMAXrwJAltwXwOsDDUAjXSrAHT/QP7ED9r/FOco/
lpc_rms=-29.35
offset=4341
pitch_keycenter=e3
sample=BassClarinet_fall_PP_E3.opus
</region>

<region>
hikey=e4
hivel=127
lokey=d#4
lovel=1
lpc=9UE3QixJuMJM5o5Csdo/wr6mKEKGQ/jBzH56QRUg9cAs8tBAzApDwIgvAcBcNh5Awu4cQGuAh8BpJJ5AdXJqwLniir4pGsg+z9hMP34ktL+Eb7BAoXAJwSqzAEEUjEzA
lpc_rms=-19.54
offset=6161
pitch_keycenter=e4
sample=BassClarinet_fall_PP_E4.opus
</region>

<region>
hikey=f#2
hivel=127
lokey=f2
lovel=1
lpc=9KIJQsUogMIJnSpCMF+1wdiMMUEENpjA1LMcQP65HjzzqTrA6gzbQJNWkcDmsLA/VeyxPzv8MMD2i/c/Sx6fP2UAtb9jt/8/D7dywIOIYkCCvca/dxPjvsh3xD7ODIe+
lpc_rms=-25.77
offset=261
pitch_keycenter=f#2
sample=BassClarinet_fall_PP_F#2.opus
</region>

<region>
hikey=f#3
hivel=127
lokey=f3
lovel=1
lpc=EGnWQoM7QMMhyNtCykV7wraEGUJzkDXAHK2OwH1aaUF7HF/BhhSOQZ9sBMEge8/A1LGtvwoJIsArCUJB3mK4wJvSEkH21FjAZv7Qv94eGz5ahWG+GztCweeaJT7KuxVB
lpc_rms=-18.91
offset=6594
pitch_keycenter=f#3
sample=BassClarinet_fall_PP_F#3.opus
</region>

<region>
hikey=f#4
hivel=127
lokey=f4
lovel=1
lpc=b4GQQgE2EcM6abhCEVsYwvXr4UFrbCjBa4ZJQELbh790rsE/+qsOQJo2or+GHbrAXGeJQO7Q0sA+ovBA9mIPPDWDJ8DLl1zACTCEQLKWRL9kdjRA6Gg6wLdnd0BG7BjA
lpc_rms=-16.76
offset=5443
pitch_keycenter=f#4
sample=BassClarinet_fall_PP_F#4.opus
</region>

<region>
hikey=g#2
hivel=127
lokey=g2
lovel=1
lpc=vZxDQgtwzsLEQKdC7CNPwt9fA0JGP6vBaNBLQd62e8BZ38w+RHdXQIPbGUBHPZDAgZOeP20dpb9Sj0NAHvTUv7g2N73+8eA6EpiivygJgb9siX1Ab4dUwG062j4egB4/
lpc_rms=-25.22
offset=3173
pitch_keycenter=g#2
sample=BassClarinet_fall_PP_G#2.opus
</region>

<region>
hikey=g#3
hivel=127
lokey=g3
lovel=1
lpc=y3pyQlZt2sLxeoRCG78iwtUVt0HNJ5TAjnHGv/HH7EBGMKXA3rFuQSV/K8HxD4NAC1/gwLJj00DgFq/AASDYQGKaAr+Eh43Ar7IDQOmRc8Ay8YI/2K83Pp628cDOGgdB
lpc_rms=-23.62
offset=2000
pitch_keycenter=g#3
sample=BassClarinet_fall_PP_G#3.opus
</region>

<region>
hikey=g#4
hivel=127
lokey=g4
lovel=1
lpc=CrkqQko3qcIT30tCS7CGwUA8PkFsq1XALoRtv34MSkCDCWjAhkZoP2hdwD/s35vA2KdqQG/vJ8CEERFAxZviP+4wKb4YB/8+CScvwDOdgUBcMjXADRTCPUOQ9795ieg/
lpc_rms=-22.16
offset=11247
pitch_keycenter=g#4
sample=BassClarinet_fall_PP_G#4.opus
</region>
</group>

<group>
ampeg_release=0.05
group_label=Sustain_91-127
lpc_hicc1=127
lpc_locc1=85

<region>
hikey=a#2
hivel=127
lokey=a2
lovel=1
lpc=BrFDQQ7E/8FeEghCpCSTwRVtmUB5UuS/O0LcQIWXIsG7QIpAghcdQBHaAcDEWSPAcJqCQK7fZL+uUiHAIF6dQFIkkMDnqIU/M2YJv1lanD9wMww/5XGQvyO4574S3SU/
lpc_rms=-18.17
offset=1562
pitch_keycenter=a#2
sample=Bass_fall_FF_A#2.opus
</region>

<region>
hikey=a#3
hivel=127
lokey=a3
lovel=1
lpc=FLtQQdVfCsJ9xhdCqKa3wSGtGEGxZW7AQF4jQKY3HsCJLNg/BiziPTtZFcAoUrg/WJ/kPquss79MZx5AM/EVwOdz1z801hW/HBKiv5D8Fr1wWXFAEaCGwLZZzT+msSK+
lpc_rms=-18.20
offset=2707
pitch_keycenter=a#3
sample=Bass_fall_FF_A#3.opus
</region>

<region>
hikey=G5
hivel=127
lokey=a4
lovel=1
lpc=rRR4QZaIE8ImVglC54qIwZkXeUDnxjW/5aC+QNPZ88COTTFApO7kPrQgcz+2p1DALmbEP1VTyT7yxQA+fsw9QHh+mMC4y4e+WlKIQOKqqMD0C3lAjqCMP+U9N8BWCHk/
lpc_rms=-21.00
offset=4202
pitch_keycenter=A#4
sample=Bass_fall_FF_A#4.opus
</region>

<region>
hivel=127
key=c2
lovel=1
lpc=wopHQW0C+MGdRe1BJHpawaDcikAm1rPAXkAXQYQLnsBuo5nApDOnQGUrGT4FCPO/JrMrOl/TXUCoQiPA8FH1vk8l1r+o4HtAUnnMv6vDk79giC4/WSbRP5vWFMBRaWY/
lpc_rms=-17.51
offset=13901
sample=Bass_fall_FF_C2.opus
</region>

<region>
hikey=c3
hivel=127
lokey=b2
lovel=1
lpc=lxdvQVIKI8JumD1CwGsDwh1tiEHr/wTB/rC+QGVfrMDe4DhAneTUv3rRxj+HN7C/l+c0P8NCTT9K0pW/NNONP+x6TL+41ZY8TvGsvhxvJT/iJsk/g/aKwGvZcEBwlZ2/
lpc_rms=-19.31
offset=1455
pitch_keycenter=c3
sample=Bass_fall_FF_C3.opus
</region>

<region>
hikey=c4
hivel=127
lokey=b3
lovel=1
lpc=sW7mQZQSksKWJI5CnewLwmMTbEExsRXBG8/ZQElsrcDPTy7AqisRQaizwcBre7E/+1vcPrgCVMCdUv4/ga+JQJiNs8AzlBdAvr5Sv9siyr8gVqNAPBCKwGDk6T4aCaA/
lpc_rms=-12.85
offset=1345
pitch_keycenter=c4
sample=Bass_fall_FF_C4.opus
</region>

<region>
hikey=d2
hivel=127
lokey=c#2
lovel=1
lpc=Ts5QQRwmBMLAMgVCwNqKweYH60AfAu3Asf8bQRNetMDkzjvArD+AQBpjRz4QmiDAGQIUQGDXD7+kkZA/9LvNvzT5FMBAMkxA0MjOPgZFp7/m7jHAJJboQEvp0MB8fgxA
lpc_rms=-16.22
offset=7409
pitch_keycenter=d2
sample=Bass_fall_FF_D2.opus
</region>

<region>
hikey=d3
hivel=127
lokey=c#3
lovel=1
lpc=wPmNQUaOQcKuUlpCDrgNwncqikHjkQ7B673SQDi9mMDnswE/485jQHhursAXhEVA9LZ5P7LsN7+Nqmi/R9LiP6EPEsBXILw/hzdHvlX2o7+UnldAQTWgwMJDSUC8i/y+
lpc_rms=-18.65
offset=540
pitch_keycenter=d3
sample=Bass_fall_FF_D3.opus
</region>

<region>
hikey=d4
hivel=127
lokey=c#4
lovel=1
lpc=ijThQQj6jMLtTIRC0Gz7wZkJgUEjikvBbivTQKKvFsBnIx8/84IxwIufuj7iixtAGJ+7P2tfT78kOO2/qcqZP/EqQsAH/W9AzKAHwGvMAD0bd4VAHIFLwBwjBcD5ABdA
lpc_rms=-13.55
offset=1068
pitch_keycenter=d4
sample=Bass_fall_FF_D4.opus
</region>

<region>
hikey=e2
hivel=127
lokey=d#2
lovel=1
lpc=s5hiQW97FMLD+hlCt3ShwbZZ30ARN63AbjAlQfWSPcHsTadA5lwpvjOcOb1w79C/6SoxQOKr37/3XsU/LOi5PX8fjMAQaYFADNUYvwK2QD5oz7S/QuQEQFDb27/PuA4/
lpc_rms=-17.58
offset=3561
pitch_keycenter=e2
sample=Bass_fall_FF_E2.opus
</region>

<region>
hikey=e3
hivel=127
lokey=d#3
lovel=1
lpc=mAGuQUyHZcIw4WVCFIbtwaxfbkHk8jzBNBEFQb7tXsBiIj/AJf4RQaiEO8ETB65AmxRxQJkrksCQbxdA2WM+v4rakb+jpw1Ah7EiwGjD7D/eYmS/xflqvp4OCz9znRu+
lpc_rms=-16.50
offset=973
pitch_keycenter=e3
sample=Bass_fall_FF_E3.opus
</region>

<region>
hikey=e4
hivel=127
lokey=d#4
lovel=1
lpc=ZyatQc6IW8K9o2tCVTAJwq9eLUENmcjAQ/pLQYXlQMHN3sFAi2hBwOMsOr/TQ1JANCR2wDyfREBqxTPAwH9BQGAqsr8LpRPAXiu6QDtwgMCaZQU/4z1Mv8T3Ar70DM4/
lpc_rms=-15.07
offset=5428
pitch_keycenter=e4
sample=Bass_fall_FF_E4.opus
</region>

<region>
hikey=f#2
hivel=127
lokey=f2
lovel=1
lpc=FMaFQfRxM8JRXjtCseK2wb6320D/BwXBgBVlQehMVMFeYFpAbGtvQCilSMDCwbe+FoQbQIDx9r/btUQ//voRQJFjmMCWLoE/rjExQPH79L96Dw8/yl78PkVysb8Rul8/
lpc_rms=-15.45
offset=2222
pitch_keycenter=f#2
sample=Bass_fall_FF_F#2.opus
</region>

<region>
hikey=f#3
hivel=127
lokey=f3
lovel=1
lpc=2LICQoNPtMLJW8RCfKpuwmr3AkKPisfBvx2zQVBEkMGTaJxA2ScdQY5MUsF2kJ9AQh2FPzn5gT/J2ajANUQPQTw9O8FJkRhBreQCwFrbuj+l9PvA5WzMQHwhlb8q6f49
lpc_rms=-12.76
offset=797
pitch_keycenter=f#3
sample=Bass_fall_FF_F#3.opus
</region>

<region>
hikey=f#4
hivel=127
lokey=f4
lovel=1
lpc=Q2gMQgklt8KDIsJCpqZnwk6Du0FUwNDAOxmqP7ZJBj/cf6rAvOE3QQWSIcHuRAe/zxBwQDK7NkAqCLDAHVGXQCfAHMAoaw6/B9RBv51A5D+tnJZAnibhwOrQjL5c+DVA
lpc_rms=-12.65
offset=6719
pitch_keycenter=f#4
sample=Bass_fall_FF_F#4.opus
</region>

<region>
hikey=g#2
hivel=127
lokey=g2
lovel=1
lpc=Gzp1QT8KJsJtcjlC+Z/bwYw3FkGGXpXAiT8gQU1iQ8Fvcg5AzT37QFRnycDRoADAxlGYQMjXEb+0/xLAxqV/QBZaxsD5IcNAx8OswMl6hEBwUPm/y7IPQGeZOcDnBKQ/
lpc_rms=-15.29
offset=3679
pitch_keycenter=g#2
sample=Bass_fall_FF_G#2.opus
</region>

<region>
hikey=g#3
hivel=127
lokey=g3
lovel=1
lpc=9NzsQWAmn8JgladCHc9Ewq7CukHCUDrBdsEhQcZrYMHkzjlBN2oowGB6PcDiF0E/ugUYwLeTG0GYTTDBzT7YQCeo5b27LbrAirDsQM59tMCknpFAEcSGwDtuAUBxmYy+
lpc_rms=-15.05
offset=1026
pitch_keycenter=g#3
sample=Bass_fall_FF_G#3.opus
</region>

<region>
hikey=g#4
hivel=127
lokey=g4
lovel=1
lpc=w5KwQac0YsKzbWNCGlT9wfmWZ0FPWRXBCyQtQRlALsEvQt9AKHZlvxNmkcAjq2pAl0RiwOcUjEDyTK2/nXK9P/oMG8Da4qu+cFB5QAi2v8B45KdAmZKHv32d67+iy5I/
lpc_rms=-17.07
offset=4140
pitch_keycenter=g#4
sample=Bass_fall_FF_G#4.opus
</region>
</group>

<group>
ampeg_attack=0.05
ampeg_release=5.0
group_label=Release_0-45
lpc_hicc1=42
lpc_locc1=0
trigger=release

<region>
hikey=a#2
hivel=127
lokey=a2
lovel=1
lpc=vYS9QaivLMJY1NBB9/Zawaf3IUEL46DAo6RgP7nqQj5SD6A/OX9Hv+kuCEC+KwbAfl8gQJPogcDWbSZA8Zttvw4WCUDeb1HAss8iQCUl4r9B+y1ASYs3wAUhEj/Amr8+
lpc_rms=-29.65
offset=110400
pitch_keycenter=a#2
sample=BassClarinet_fall_PP_A#2.opus
</region>

<region>
hikey=a#3
hivel=127
lokey=a3
lovel=1
lpc=Pk6OQThnA8Ih75ZBkCDJwJ72okD1HALAQ6hrv60MfD+x8ru/WcpQP/uv3T5JFfu+7nupPq0AM7/Kbq4+kvFlvkBDCT/LaEm/msVFP3e9Vj7Wdsa+wwyCPsIZi7/dk4s/
lpc_rms=-30.42
offset=110400
pitch_keycenter=a#3
sample=BassClarinet_fall_PP_A#3.opus
</region>

<region>
hikey=G5
hivel=127
lokey=a4
lovel=1
lpc=kLqXQdg9FsKfscVBp3giwZ9m5UD5YojAiBzTP/P30b/6HzRAwzUiwD9w5D+gDlO/HsCXP26X0L+MjhM/eRo+P3pxmb/IRxo/8mIyv/ZZ1z/K2uG/Kr6bP/fVQb9qINw+
lpc_rms=-29.20
offset=110400
pitch_keycenter=A#4
sample=BassClarinet_fall_PP_A#4.opus
</region>

<region>
hivel=127
key=c2
lovel=1
lpc=67UcQg2ErsLTdqFCQQsywuZpfkE7kTXBGJk3QTNBrcCgVnDA0yXeQBFqTb9cc6XAhpWcQKI7hMAs699APpywwPZNhr8qsotAS3KNP6EXusB0eJBAcMfFPxKPZ8ArA1w/
lpc_rms=-27.08
offset=110400
sample=BassClarinet_fall_PP_C2.opus
</region>

<region>
hikey=c3
hivel=127
lokey=b2
lovel=1
lpc=/yX3QRRud8LJZCtCyaWlwSomXkFEdaXAv5f/PmFkdcA/+6RAPVhxwHSQQUCTmoPA9R9eQIFQIsCjD8JAOlClwBNiOkB4zgvANV4VQGXh6z3XGQHAt0+QPiNdM7+a7jM/
lpc_rms=-29.70
offset=110400
pitch_keycenter=c3
sample=BassClarinet_fall_PP_C3.opus
</region>

<region>
hikey=c4
hivel=127
lokey=b3
lovel=1
lpc=UsBAQjaEtMIBRGpCj8PjwWlDukHt2mLBew/FQLualcBOcjvADwQHQbKPfcC/th8/vDZ8QBYsJsGhxt5A03Guv8/LR0AH/+TAhBxlQEKFv77JKmc/EIGvv7VyiEBafb6/
lpc_rms=-20.58
offset=110400
pitch_keycenter=c4
sample=BassClarinet_fall_PP_C4.opus
</region>

<region>
hikey=d2
hivel=127
lokey=c#2
lovel=1
lpc=2tcvQip4wsI7JKxCfhAzwqhIaUF/r9DANefdQLp1sMDE5FE+pm12QDoWpMCbTIlAOU7Bv7jptb8HSUQ/ZXjvQFL7PsFfCuFA1YsNQP9wwsBgdrZA/IkkwNCxvL4dWho9
lpc_rms=-25.36
offset=110400
pitch_keycenter=d2
sample=BassClarinet_fall_PP_D2.opus
</region>

<region>
hikey=d3
hivel=127
lokey=c#3
lovel=1
lpc=B5vuQYNFXsJ4HA9Cm2SuwY4td0Er39rAw2nqP/RbLEDYgRfA+kPZPzezTz8NHOG/5KF6PuUAsr6I5Ac/cDbIP/7Z978eP5c/ZsY1vV3UYz6HTa6/QSDgPr9J1b93tMk/
lpc_rms=-29.93
offset=110400
pitch_keycenter=d3
sample=BassClarinet_fall_PP_D3.opus
</region>

<region>
hikey=d4
hivel=127
lokey=c#4
lovel=1
lpc=QfFTQqPO0MJ/E4xC1TL/wXiGuEFSwS3BkLdov9zaEb5UAnw/0CUCwAj900AK4rTAPF5hQChTrb8tG1A9krgbvi3qEUCbjWbAR/PiP7G5OD9CBIM/lGYrwHZzO0Dn4cW/
lpc_rms=-22.10
offset=110400
pitch_keycenter=d4
sample=BassClarinet_fall_PP_D4.opus
</region>

<region>
hikey=e2
hivel=127
lokey=d#2
lovel=1
lpc=RMjhQQ9uXcJ8HxBCn/xHwWDX1kBv+sXALQt1QOqWF8CyimI/fEroPrgbZz+lWi7ACVilQEfl3cDOr85AA//avwTREcBPTT9ACGAHwO2cU0COOyDARRLOv2NZGkAPiH6/
lpc_rms=-27.24
offset=110400
pitch_keycenter=e2
sample=BassClarinet_fall_PP_E2.opus
</region>

<region>
hikey=e3
hivel=127
lokey=d#3
lovel=1
lpc=l0zPQT5iNcKK+9JBS9+MwUt2LUHi7NK+h0MkwMYGpUBY+3zArdJQQOESOL9Hdy2+RoRpv2QFdj7a0R8/QIQGQF8ISMAXrwJAltwXwOsDDUAjXSrAHT/QP7ED9r/FOco/
lpc_rms=-29.35
offset=110400
pitch_keycenter=e3
sample=BassClarinet_fall_PP_E3.opus
</region>

<region>
hikey=e4
hivel=127
lokey=d#4
lovel=1
lpc=9UE3QixJuMJM5o5Csdo/wr6mKEKGQ/jBzH56QRUg9cAs8tBAzApDwIgvAcBcNh5Awu4cQGuAh8BpJJ5AdXJqwLniir4pGsg+z9hMP34ktL+Eb7BAoXAJwSqzAEEUjEzA
lpc_rms=-19.54
offset=110400
pitch_keycenter=e4
sample=BassClarinet_fall_PP_E4.opus
</region>

<region>
hikey=f#2
hivel=127
lokey=f2
lovel=1
lpc=9KIJQsUogMIJnSpCMF+1wdiMMUEENpjA1LMcQP65HjzzqTrA6gzbQJNWkcDmsLA/VeyxPzv8MMD2i/c/Sx6fP2UAtb9jt/8/D7dywIOIYkCCvca/dxPjvsh3xD7ODIe+
lpc_rms=-25.77
offset=110400
pitch_keycenter=f#2
sample=BassClarinet_fall_PP_F#2.opus
</region>

<region>
hikey=f#3
hivel=127
lokey=f3
lovel=1
lpc=EGnWQoM7QMMhyNtCykV7wraEGUJzkDXAHK2OwH1aaUF7HF/BhhSOQZ9sBMEge8/A1LGtvwoJIsArCUJB3mK4wJvSEkH21FjAZv7Qv94eGz5ahWG+GztCweeaJT7KuxVB
lpc_rms=-18.91
offset=110400
pitch_keycenter=f#3
sample=BassClarinet_fall_PP_F#3.opus
</region>

<region>
hikey=f#4
hivel=127
lokey=f4
lovel=1
lpc=b4GQQgE2EcM6abhCEVsYwvXr4UFrbCjBa4ZJQELbh790rsE/+qsOQJo2or+GHbrAXGeJQO7Q0sA+ovBA9mIPPDWDJ8DLl1zACTCEQLKWRL9kdjRA6Gg6wLdnd0BG7BjA
lpc_rms=-16.76
offset=110400
pitch_keycenter=f#4
sample=BassClarinet_fall_PP_F#4.opus
</region>

<region>
hikey=g#2
hivel=127
lokey=g2
lovel=1
lpc=vZxDQgtwzsLEQKdC7CNPwt9fA0JGP6vBaNBLQd62e8BZ38w+RHdXQIPbGUBHPZDAgZOeP20dpb9Sj0NAHvTUv7g2N73+8eA6EpiivygJgb9siX1Ab4dUwG062j4egB4/
lpc_rms=-25.22
offset=110400
pitch_keycenter=g#2
sample=BassClarinet_fall_PP_G#2.opus
</region>

<region>
hikey=g#3
hivel=127
lokey=g3
lovel=1
lpc=y3pyQlZt2sLxeoRCG78iwtUVt0HNJ5TAjnHGv/HH7EBGMKXA3rFuQSV/K8HxD4NAC1/gwLJj00DgFq/AASDYQGKaAr+Eh43Ar7IDQOmRc8Ay8YI/2K83Pp628cDOGgdB
lpc_rms=-23.62
offset=110400
pitch_keycenter=g#3
sample=BassClarinet_fall_PP_G#3.opus
</region>

<region>
hikey=g#4
hivel=127
lokey=g4
lovel=1
lpc=CrkqQko3qcIT30tCS7CGwUA8PkFsq1XALoRtv34MSkCDCWjAhkZoP2hdwD/s35vA2KdqQG/vJ8CEERFAxZviP+4wKb4YB/8+CScvwDOdgUBcMjXADRTCPUOQ9795ieg/
lpc_rms=-22.16
offset=110400
pitch_keycenter=g#4
sample=BassClarinet_fall_PP_G#4.opus
</region>
</group>

<group>
ampeg_attack=0.05
ampeg_release=5.0
group_label=Release_46-90
lpc_hicc1=84
lpc_locc1=43
trigger=release

<region>
hikey=a#2
hivel=127
lokey=a2
lovel=1
lpc=B3iJQb2xNcKFNUJCwELqwZPVZ0Gvyg3Bcdq5QPnhUsBllVw/zsnrP/PXMMArx6A7FSDSP79Zxj3QbCC/XhUhPkTKwj6optK/LGK2Pz7cCz98z5G/0QhmvzYHgT9Ad1M+
lpc_rms=-22.01
offset=110400
pitch_keycenter=a#2
sample=Bass_fall_MF_A#2.opus
</region>

<region>
hikey=a#3
hivel=127
lokey=a3
lovel=1
lpc=SZ9ZQSvCEcK66B5C+3KpwV62gkBouQQ/aJrPP2eJDcCx830/WN7UPgGF87/TVno9IFdNQCQrKsCYtka/cOefP4kFkT8l2KO/+Y30vefk9769myJARDs+wK6aWj8tymg+
lpc_rms=-22.34
offset=110400
pitch_keycenter=a#3
sample=Bass_fall_MF_A#3.opus
</region>

<region>
hikey=G5
hivel=127
lokey=a4
lovel=1
lpc=MQN3QdrdGcKAoB9CQ2zCwaZuPUGVvRPBpDIkQbb2CsFji4ZAO8T6vu0ypT80UjnAFSmXPpxJVUD1P5HAZXijQDE/mcAS70o/uMZ3QGE4wMA48uhAana3wDjXCkCsfkG+
lpc_rms=-22.33
offset=110400
pitch_keycenter=A#4
sample=Bass_fall_MF_A#4.opus
</region>

<region>
hivel=127
key=c2
lovel=1
lpc=TkrIQTN2jMKHHZxCDN0kwrsE+EBhoaa/61gBQWnjG8HHEh9A2hlPQGsTk79yA1TAcchlQFYPYL+cUs4/AIQqwGE19b9er51AbSiav9GpUMARJm5AZuiMvy2byb+jsZU/
lpc_rms=-22.93
offset=110400
sample=Bass_fall_MF_C2.opus
</region>

<region>
hikey=c3
hivel=127
lokey=b2
lovel=1
lpc=UxWkQXXsYsJx+IZCReBIwsWf+kHUEp3BITQyQbQisMB7Q8M/wbCzPxduwL9hhjk9BpBpv6yDuj8jNAVADpxHwFe4VT/rsx6/bYrzP2Fw37/m15M/SK2gv2+w/r7R24s/
lpc_rms=-22.52
offset=110400
pitch_keycenter=c3
sample=Bass_fall_MF_C3.opus
</region>

<region>
hikey=c4
hivel=127
lokey=b3
lovel=1
lpc=t9T0QZS9qsJkfcBCFpNiwiuBp0E+cCzB03AsQbll7sAiURLADqAiQQs5psDE5NPAXN0gQeiJ1MBzGypA+RwoQFq1psD2ULw/lYYnQPNWZcCTTnBACcWMwDwEHEB4N58+
lpc_rms=-17.58
offset=110400
pitch_keycenter=c4
sample=Bass_fall_MF_C4.opus
</region>

<region>
hikey=d2
hivel=127
lokey=c#2
lovel=1
lpc=/gC9QRhOicI9JKxCu11+whk7EEJ6wcbBjRSxQTX2hMGOg9RA6AV7PkA8Yb9XA92/c71iQDNpuMC7DRxBvMAXwRVuhEAUhL8+01ZVvz4F4b6Z9Kk/Mx2Hv2HyTr88eWY/
lpc_rms=-21.89
offset=110400
pitch_keycenter=d2
sample=Bass_fall_MF_D2.opus
</region>

<region>
hikey=d3
hivel=127
lokey=c#3
lovel=1
lpc=acLCQfUhhcLEYY5CtsIiwsl6nEHP5ljBmDoMQUbZcMDFyuM/0gn1v0ngH0CsPFvAbhg9QB8yM8BDurRADMqgwFWBiD840+C+XQ7TP/dYOb/c7u49chqEwBw5s0CeGfK/
lpc_rms=-21.87
offset=110400
pitch_keycenter=d3
sample=Bass_fall_MF_D3.opus
</region>

<region>
hikey=d4
hivel=127
lokey=c#4
lovel=1
lpc=OsInQnqf0sKxHNVCncRywvNv6EF3epLBfypDQVmvIcFRNsBAK1DyvyiSmkACu7DAjgIxPmbn0z/ZB7E9IldAP2wFe8Aye9U/aFtrQAZjKcAPKZ6/ES0UQAsFBMBHw94/
lpc_rms=-17.39
offset=110400
pitch_keycenter=d4
sample=Bass_fall_MF_D4.opus
</region>

<region>
hikey=e2
hivel=127
lokey=d#2
lovel=1
lpc=HKy3QXTwg8I1C59CRmRYwt/9vkH3AxDBC2TkQL9918Dp5v4+AVGlQIEWlcDaXx4/8cikP0mL2r+hi55Ao36xwFzDmj/TfwJAh3IfwJyTLkB3ADLAD0nJP1xgdb91lQ8/
lpc_rms=-22.58
offset=110400
pitch_keycenter=e2
sample=Bass_fall_MF_E2.opus
</region>

<region>
hikey=e3
hivel=127
lokey=d#3
lovel=1
lpc=Lo/eQdrYk8Le4JRCNH0dwj2vlkG/CGzB0V5cQQuiHMHQeM1AXQPKwDmynUALq7jAK6TAQGYPRcD3bnpAsbrKv9mh37/a9PQ9o/B7v8TZvT8Dcjw/ivQLP1WLT8CVN/U/
lpc_rms=-20.31
offset=110400
pitch_keycenter=e3
sample=Bass_fall_MF_E3.opus
</region>

<region>
hikey=e4
hivel=127
lokey=d#4
lovel=1
lpc=DykPQnKErMK7r6dC8S08wjQHq0ET1ZLBXHukQc0dRsEm6ZlAs8Oav/F3zL8D/IK/sLAVQJbWIcB1ikFAMzCoP56KIsDua38/BsZqPhlKWcCv+CxAjuwyPre3xL88LOE/
lpc_rms=-16.91
offset=110400
pitch_keycenter=e4
sample=Bass_fall_MF_E4.opus
</region>

<region>
hikey=f#2
hivel=127
lokey=f2
lovel=1
lpc=FjTIQSgmjMLmX6JCvGJPwphLqUHJchXBI0cVQWQ2HcGMJeZAqFqiv2BMnMD8zJJAEgIwwB2SdEAktx7AHO88v2bNE0D/Gg3AP7SPP67ZED1RFYM/qf5MwLgoO0BNj1G/
lpc_rms=-19.83
offset=110400
pitch_keycenter=f#2
sample=Bass_fall_MF_F#2.opus
</region>

<region>
hikey=f#3
hivel=127
lokey=f3
lovel=1
lpc=/NdfQrkCCcPGf+lC6VdVwnwqEUKuq8PBS7sXQW/DMMEkTV5BP4+MwPxmYj/WyB/BLl3NQPx5wsDwxl1BVLKjwGB5OsDsu8I/XchzwJMCJEGTMzjBEzwPQQKtOMHig+hA
lpc_rms=-14.86
offset=110400
pitch_keycenter=f#3
sample=Bass_fall_MF_F#3.opus
</region>

<region>
hikey=f#4
hivel=127
lokey=f4
lovel=1
lpc=ofVMQkVUBMOZDApD2OmjwgOUDkIXZobBDnCFQR01icFrcjJBhUB7v55zLcDdbTHBuAK8QcjSk8Foj/lAQD9zP02as78ZxwrB4856QT84kMElyKFBMdhJwRNcKsAwf7tA
lpc_rms=-11.79
offset=110400
pitch_keycenter=f#4
sample=Bass_fall_MF_F#4.opus
</region>

<region>
hikey=g#2
hivel=127
lokey=g2
lovel=1
lpc=7S7AQTieh8KIAaFCJIFcwidBxEE4H+nAhfdGQEjT/L+wEka/8QLfP8Fj6T6NPbfA5xP7QGKWv8AKOLRA412LwGOlYj+7IbM/1nX+vwI2CUB8z8C/S71hvvgwcD8lyoa+
lpc_rms=-20.10
offset=110400
pitch_keycenter=g#2
sample=Bass_fall_MF_G#2.opus
</region>

<region>
hikey=g#3
hivel=127
lokey=g3
lovel=1
lpc=oYwiQrSky8J9R7hC3k41wqfruEExXirB+m+KQJi2nMBCkB5ALdTJQPVe0MCfbMTA4xH0QC9mqMAshglBADh9wPt9JECHur3AsLGPQKiPfz7ELYjAHcWBQOwsecCWfRBA
lpc_rms=-17.27
offset=110400
pitch_keycenter=g#3
sample=Bass_fall_MF_G#3.opus
</region>

<region>
hikey=g#4
hivel=127
lokey=g4
lovel=1
lpc=F4nVQfd1gcLvX3RC0TQIwupQn0Eo7W7BJMIyQez3xcBiuANAoUw4QHpjBcGZ6MlAmzUtv0y5g8D8b7pAkchswBxlgUDOqqbAJDlXQFseEL7VX/y/e2/gP8tRcb7MSkE+
lpc_rms=-19.06
offset=110400
pitch_keycenter=g#4
sample=Bass_fall_MF_G#4.opus
</region>
</group>

<group>
ampeg_attack=0.05
ampeg_release=5.0
group_label=Release_91-127
lpc_hicc1=127
lpc_locc1=85
trigger=release

<region>
hikey=a#2
hivel=127
lokey=a2
lovel=1
lpc=BrFDQQ7E/8FeEghCpCSTwRVtmUB5UuS/O0LcQIWXIsG7QIpAghcdQBHaAcDEWSPAcJqCQK7fZL+uUiHAIF6dQFIkkMDnqIU/M2YJv1lanD9wMww/5XGQvyO4574S3SU/
lpc_rms=-18.17
offset=110400
pitch_keycenter=a#2
sample=Bass_fall_FF_A#2.opus
</region>

<region>
hikey=a#3
hivel=127
lokey=a3
lovel=1
lpc=FLtQQdVfCsJ9xhdCqKa3wSGtGEGxZW7AQF4jQKY3HsCJLNg/BiziPTtZFcAoUrg/WJ/kPquss79MZx5AM/EVwOdz1z801hW/HBKiv5D8Fr1wWXFAEaCGwLZZzT+msSK+
lpc_rms=-18.20
offset=110400
pitch_keycenter=a#3
sample=Bass_fall_FF_A#3.opus
</region>

<region>
hikey=G5
hivel=127
lokey=a4
lovel=1
lpc=rRR4QZaIE8ImVglC54qIwZkXeUDnxjW/5aC+QNPZ88COTTFApO7kPrQgcz+2p1DALmbEP1VTyT7yxQA+fsw9QHh+mMC4y4e+WlKIQOKqqMD0C3lAjqCMP+U9N8BWCHk/
lpc_rms=-21.00
offset=110400
pitch_keycenter=A#4
sample=Bass_fall_FF_A#4.opus
</region>

<region>
hivel=127
key=c2
lovel=1
lpc=wopHQW0C+MGdRe1BJHpawaDcikAm1rPAXkAXQYQLnsBuo5nApDOnQGUrGT4FCPO/JrMrOl/TXUCoQiPA8FH1vk8l1r+o4HtAUnnMv6vDk79giC4/WSbRP5vWFMBRaWY/
lpc_rms=-17.51
offset=110400
sample=Bass_fall_FF_C2.opus
</region>

<region>
hikey=c3
hivel=127
lokey=b2
lovel=1
lpc=lxdvQVIKI8JumD1CwGsDwh1tiEHr/wTB/rC+QGVfrMDe4DhAneTUv3rRxj+HN7C/l+c0P8NCTT9K0pW/NNONP+x6TL+41ZY8TvGsvhxvJT/iJsk/g/aKwGvZcEBwlZ2/
lpc_rms=-19.31
offset=110400
pitch_keycenter=c3
sample=Bass_fall_FF_C3.opus
</region>

<region>
hikey=c4
hivel=127
lokey=b3
lovel=1
lpc=sW7mQZQSksKWJI5CnewLwmMTbEExsRXBG8/ZQElsrcDPTy7AqisRQaizwcBre7E/+1vcPrgCVMCdUv4/ga+JQJiNs8AzlBdAvr5Sv9siyr8gVqNAPBCKwGDk6T4aCaA/
lpc_rms=-12.85
offset=110400
pitch_keycenter=c4
sample=Bass_fall_FF_C4.opus
</region>

<region>
hikey=d2
hivel=127
lokey=c#2
lovel=1
lpc=Ts5QQRwmBMLAMgVCwNqKweYH60AfAu3Asf8bQRNetMDkzjvArD+AQBpjRz4QmiDAGQIUQGDXD7+kkZA/9LvNvzT5FMBAMkxA0MjOPgZFp7/m7jHAJJboQEvp0MB8fgxA
lpc_rms=-16.22
offset=110400
pitch_keycenter=d2
sample=Bass_fall_FF_D2.opus
</region>

<region>
hikey=d3
hivel=127
lokey=c#3
lovel=1
lpc=wPmNQUaOQcKuUlpCDrgNwncqikHjkQ7B673SQDi9mMDnswE/485jQHhursAXhEVA9LZ5P7LsN7+Nqmi/R9LiP6EPEsBXILw/hzdHvlX2o7+UnldAQTWgwMJDSUC8i/y+
lpc_rms=-18.65
offset=110400
pitch_keycenter=d3
sample=Bass_fall_FF_D3.opus
</region>

<region>
hikey=d4
hivel=127
lokey=c#4
lovel=1
lpc=ijThQQj6jMLtTIRC0Gz7wZkJgUEjikvBbivTQKKvFsBnIx8/84IxwIufuj7iixtAGJ+7P2tfT78kOO2/qcqZP/EqQsAH/W9AzKAHwGvMAD0bd4VAHIFLwBwjBcD5ABdA
lpc_rms=-13.55
offset=110400
pitch_keycenter=d4
sample=Bass_fall_FF_D4.opus
</region>

<region>
hikey=e2
hivel=127
lokey=d#2
lovel=1
lpc=s5hiQW97FMLD+hlCt3ShwbZZ30ARN63AbjAlQfWSPcHsTadA5lwpvjOcOb1w79C/6SoxQOKr37/3XsU/LOi5PX8fjMAQaYFADNUYvwK2QD5oz7S/QuQEQFDb27/PuA4/
lpc_rms=-17.58
offset=110400
pitch_keycenter=e2
sample=Bass_fall_FF_E2.opus
</region>

<region>
hikey=e3
hivel=127
lokey=d#3
lovel=1
lpc=mAGuQUyHZcIw4WVCFIbtwaxfbkHk8jzBNBEFQb7tXsBiIj/AJf4RQaiEO8ETB65AmxRxQJkrksCQbxdA2WM+v4rakb+jpw1Ah7EiwGjD7D/eYmS/xflqvp4OCz9znRu+
lpc_rms=-16.50
offset=110400
pitch_keycenter=e3
sample=Bass_fall_FF_E3.opus
</region>

<region>
hikey=e4
hivel=127
lokey=d#4
lovel=1
lpc=ZyatQc6IW8K9o2tCVTAJwq9eLUENmcjAQ/pLQYXlQMHN3sFAi2hBwOMsOr/TQ1JANCR2wDyfREBqxTPAwH9BQGAqsr8LpRPAXiu6QDtwgMCaZQU/4z1Mv8T3Ar70DM4/
lpc_rms=-15.07
offset=110400
pitch_keycenter=e4
sample=Bass_fall_FF_E4.opus
</region>

<region>
hikey=f#2
hivel=127
lokey=f2
lovel=1
lpc=FMaFQfRxM8JRXjtCseK2wb6320D/BwXBgBVlQehMVMFeYFpAbGtvQCilSMDCwbe+FoQbQIDx9r/btUQ//voRQJFjmMCWLoE/rjExQPH79L96Dw8/yl78PkVysb8Rul8/
lpc_rms=-15.45
offset=110400
pitch_keycenter=f#2
sample=Bass_fall_FF_F#2.opus
</region>

<region>
hikey=f#3
hivel=127
lokey=f3
lovel=1
lpc=2LICQoNPtMLJW8RCfKpuwmr3AkKPisfBvx2zQVBEkMGTaJxA2ScdQY5MUsF2kJ9AQh2FPzn5gT/J2ajANUQPQTw9O8FJkRhBreQCwFrbuj+l9PvA5WzMQHwhlb8q6f49
lpc_rms=-12.76
offset=110400
pitch_keycenter=f#3
sample=Bass_fall_FF_F#3.opus
</region>

<region>
hikey=f#4
hivel=127
lokey=f4
lovel=1
lpc=Q2gMQgklt8KDIsJCpqZnwk6Du0FUwNDAOxmqP7ZJBj/cf6rAvOE3QQWSIcHuRAe/zxBwQDK7NkAqCLDAHVGXQCfAHMAoaw6/B9RBv51A5D+tnJZAnibhwOrQjL5c+DVA
lpc_rms=-12.65
offset=110400
pitch_keycenter=f#4
sample=Bass_fall_FF_F#4.opus
</region>

<region>
hikey=g#2
hivel=127
lokey=g2
lovel=1
lpc=Gzp1QT8KJsJtcjlC+Z/bwYw3FkGGXpXAiT8gQU1iQ8Fvcg5AzT37QFRnycDRoADAxlGYQMjXEb+0/xLAxqV/QBZaxsD5IcNAx8OswMl6hEBwUPm/y7IPQGeZOcDnBKQ/
lpc_rms=-15.29
offset=110400
pitch_keycenter=g#2
sample=Bass_fall_FF_G#2.opus
</region>

<region>
hikey=g#3
hivel=127
lokey=g3
lovel=1
lpc=9NzsQWAmn8JgladCHc9Ewq7CukHCUDrBdsEhQcZrYMHkzjlBN2oowGB6PcDiF0E/ugUYwLeTG0GYTTDBzT7YQCeo5b27LbrAirDsQM59tMCknpFAEcSGwDtuAUBxmYy+
lpc_rms=-15.05
offset=110400
pitch_keycenter=g#3
sample=Bass_fall_FF_G#3.opus
</region>

<region>
hikey=g#4
hivel=127
lokey=g4
lovel=1
lpc=w5KwQac0YsKzbWNCGlT9wfmWZ0FPWRXBCyQtQRlALsEvQt9AKHZlvxNmkcAjq2pAl0RiwOcUjEDyTK2/nXK9P/oMG8Da4qu+cFB5QAi2v8B45KdAmZKHv32d67+iy5I/
lpc_rms=-17.07
offset=110400
pitch_keycenter=g#4
sample=Bass_fall_FF_G#4.opus
</region>
</group>